#!OML:ASF F:\VICON\USERDATA\Patient Classification 1\PLAYGROUND\JustinFriday\JustinFriday.ASF
:FULLY-SPECIFIED
:DEGREES
4011
root 15.1921 28.0782 45.6614 0.577859 -171.211 7.30277
lowerback 16.3196 -9.84353 5.15966
upperback 11.0899 -14.499 -0.39207
thorax 1.762 -7.85339 -1.03067
lowerneck -20.7784 -2.9068 -33.8246
upperneck 0.0114449 3.84217 23.1337
head 2.34975 3.25246 13.8283
rclavicle 7.4743e-014 -4.77083e-015
rhumerus 74.9072 15.3339 -69.5405
rradius 112.625
rwrist 20.3593
rhand -45.1481 341.179
rfingers 7.12502
rthumb -17.9261 -48.0152
lclavicle 7.4743e-014 -4.77083e-015
lhumerus 78.0123 35.1778 69.0428
lradius 85.5538
lwrist -25.4025
lhand -24.4555 -17.8307
lfingers 7.12502
lthumb 2.03745 12.1394
rfemur 2.14525 -7.43871 36.5231
rtibia 3.18055e-015
rfoot 14.6173 -10.9159
rtoes 58.8878
lfemur -56.6597 24.9618 -7.31523
ltibia 97.7833
lfoot -28.3263 -31.7614
ltoes 6.68067
4012
root 15.1879 28.0777 45.6269 0.60992 -171.433 7.30049
lowerback 16.413 -9.73918 5.01757
upperback 11.0539 -14.3665 -0.40135
thorax 1.70812 -7.79364 -0.970227
lowerneck -20.7052 -2.7847 -33.6912
upperneck 0.100124 3.93268 22.9696
head 2.33907 3.27568 13.7367
rclavicle -1.58233e-013 7.15625e-014
rhumerus 76.4553 14.8768 -69.6832
rradius 111.842
rwrist 21.6934
rhand -44.8775 341.637
rfingers 7.12502
rthumb -17.6658 -47.5806
lclavicle -1.58233e-013 7.15625e-014
lhumerus 77.9289 35.2196 68.8958
lradius 85.9259
lwrist -25.6776
lhand -24.6183 -17.8121
lfingers 7.12502
lthumb 1.88021 12.1593
rfemur 2.29544 -7.1418 36.5148
rtibia 1.35174e-014
rfoot 14.4673 -10.9993
rtoes 58.8857
lfemur -56.4614 25.4832 -7.27158
ltibia 97.8486
lfoot -28.6958 -31.8492
ltoes 4.06107
4013
root 15.1721 28.0708 45.5915 0.533073 -170.75 7.53994
lowerback 16.4184 -10.0212 5.453
upperback 11.0502 -14.6702 -0.350999
thorax 1.61042 -7.92399 -1.07447
lowerneck -20.4224 -2.53604 -33.5626
upperneck -0.355783 4.21498 22.7888
head 2.08341 3.42394 13.6267
rclavicle -1.12115e-013 4.45278e-014
rhumerus 77.9139 14.29 -70.2894
rradius 111.444
rwrist 22.4714
rhand -43.9454 342.486
rfingers 7.12502
rthumb -16.7687 -46.81
lclavicle -1.12115e-013 4.45278e-014
lhumerus 77.8456 35.246 68.736
lradius 86.2001
lwrist -25.908
lhand -25.1588 -18.0554
lfingers 7.12502
lthumb 1.35824 11.92
rfemur 2.36231 -7.73099 36.7325
rtibia -2.46493e-014
rfoot 14.0511 -10.9505
rtoes 58.7992
lfemur -56.5848 25.0384 -7.11255
ltibia 97.9557
lfoot -28.8638 -31.9208
ltoes 5.32137
4014
root 15.1685 28.0671 45.5593 0.634344 -170.799 7.57287
lowerback 16.4229 -9.98743 5.41102
upperback 10.9861 -14.6085 -0.32717
thorax 1.55529 -7.89036 -1.03095
lowerneck -20.76 -2.84701 -33.6614
upperneck 1.01219 3.69711 22.8668
head 2.67935 3.08093 13.7004
rclavicle -5.1684e-014 -9.54166e-015
rhumerus 79.3559 13.7903 -70.3397
rradius 111.029
rwrist 21.6992
rhand -44.3499 343.045
rfingers 7.12502
rthumb -17.158 -46.217
lclavicle -5.1684e-014 -9.54166e-015
lhumerus 77.8225 35.255 68.5366
lradius 86.3293
lwrist -26.2656
lhand -25.8695 -18.2089
lfingers 7.12502
lthumb 0.671751 11.7698
rfemur 2.38704 -7.57788 36.7726
rtibia -9.54166e-015
rfoot 13.6467 -10.9898
rtoes 58.6926
lfemur -56.5936 25.3983 -7.09128
ltibia 98.0582
lfoot -28.8327 -32.3012
ltoes 2.70063
4015
root 15.1634 28.0652 45.5235 0.401021 -170.952 7.53245
lowerback 16.8449 -9.88983 5.19203
upperback 10.9955 -14.503 -0.358677
thorax 1.39696 -7.86095 -0.891661
lowerneck -20.7341 -2.76295 -33.5366
upperneck 1.24292 3.73254 22.7524
head 2.73365 3.07206 13.6356
rclavicle 7.71285e-014 -9.70069e-014
rhumerus 80.4907 13.4385 -70.7308
rradius 110.485
rwrist 21.8858
rhand -44.6353 343.759
rfingers 7.12502
rthumb -17.4327 -45.4793
lclavicle 7.71285e-014 -9.70069e-014
lhumerus 77.7585 35.2903 68.2855
lradius 86.5677
lwrist -26.4556
lhand -26.2277 -18.1552
lfingers 7.12502
lthumb 0.325827 11.8243
rfemur 2.83042 -7.42619 36.6716
rtibia 5.725e-014
rfoot 13.2299 -11.0787
rtoes 58.6145
lfemur -56.0062 25.8665 -6.92262
ltibia 98.1329
lfoot -29.3171 -32.554
ltoes 1.53024
4016
root 15.1495 28.0584 45.4904 0.409816 -170.528 7.56216
lowerback 16.9203 -10.0418 5.30193
upperback 10.9449 -14.66 -0.352467
thorax 1.27483 -7.92958 -0.885245
lowerneck -20.4628 -2.55465 -33.3395
upperneck 1.0387 3.89992 22.5905
head 2.58718 3.14484 13.5233
rclavicle 4.21423e-014 3.49861e-014
rhumerus 81.772 13.0635 -70.894
rradius 109.844
rwrist 21.9862
rhand -44.9687 343.842
rfingers 7.12502
rthumb -17.7535 -45.3676
lclavicle 4.21423e-014 3.49861e-014
lhumerus 77.5594 35.3808 67.9602
lradius 86.9992
lwrist -26.3564
lhand -26.2093 -17.8366
lfingers 7.12502
lthumb 0.343624 12.1429
rfemur 2.86395 -7.75339 36.6679
rtibia 1.19271e-014
rfoot 12.8219 -11.0612
rtoes 58.4888
lfemur -56.0924 25.7675 -7.01502
ltibia 98.2409
lfoot -29.7955 -32.455
ltoes 0.972089
